<svg width="16" height="24" viewBox="0 0 16 24" fill="none" xmlns="http://www.w3.org/2000/svg" xmlns:xlink="http://www.w3.org/1999/xlink">
<path d="M8.502,2.001C8.502,1.173 7.83,0.501 7.002,0.501C6.173,0.501 5.502,1.173 5.502,2.001L8.502,2.001ZM5.502,20.073C5.502,20.902 6.173,21.573 7.002,21.573C7.83,21.573 8.502,20.902 8.502,20.073L5.502,20.073ZM5.502,2.001L5.502,20.073L8.502,20.073L8.502,2.001L5.502,2.001Z" transform="rotate(-1.378 7.002 11.037)" fill="#149D52"/>
<path d="M12.181,21.416C13.01,21.416 13.681,20.744 13.681,19.916C13.681,19.087 13.01,18.416 12.181,18.416L12.181,21.416ZM2.119,19.916L0.619,19.916C0.619,20.744 1.29,21.416 2.119,21.416L2.119,19.916ZM3.619,9.853C3.619,9.025 2.947,8.353 2.119,8.353C1.29,8.353 0.619,9.025 0.619,9.853L3.619,9.853ZM12.181,18.416L2.119,18.416L2.119,21.416L12.181,21.416L12.181,18.416ZM3.619,19.916L3.619,9.853L0.619,9.853L0.619,19.916L3.619,19.916Z" transform="rotate(-91.378 7.15 14.885)" fill="#149D52"/>
</svg>
