<svg width="16" height="22" viewBox="0 0 16 22" fill="none" xmlns="http://www.w3.org/2000/svg" xmlns:xlink="http://www.w3.org/1999/xlink">
<path d="M8.717,1.928C8.717,1.099 8.046,0.428 7.217,0.428C6.389,0.428 5.717,1.099 5.717,1.928L8.717,1.928ZM5.717,20C5.717,20.828 6.389,21.5 7.217,21.5C8.046,21.5 8.717,20.828 8.717,20L5.717,20ZM5.717,1.928L5.717,20L8.717,20L8.717,1.928L5.717,1.928Z" transform="rotate(-360 7.217 10.964)" fill="#F2383A"/>
<path d="M12.146,13.646C12.975,13.646 13.646,12.975 13.646,12.146C13.646,11.318 12.975,10.646 12.146,10.646L12.146,13.646ZM2.084,12.146L0.584,12.146C0.584,12.975 1.256,13.646 2.084,13.646L2.084,12.146ZM3.584,2.084C3.584,1.255 2.912,0.584 2.084,0.584C1.256,0.584 0.584,1.255 0.584,2.084L3.584,2.084ZM12.146,10.646L2.084,10.646L2.084,13.646L12.146,13.646L12.146,10.646ZM3.584,12.146L3.584,2.084L0.584,2.084L0.584,12.146L3.584,12.146Z" transform="rotate(270 7.115 7.115)" fill="#F2383A"/>
</svg>
