<svg width="600" height="550" viewBox="0 0 600 550" fill="none" xmlns="http://www.w3.org/2000/svg" xmlns:xlink="http://www.w3.org/1999/xlink">
<path d="M540,280.862C540,400.688 432.122,501.724 294,501.724L294,549.724C454.11,549.724 588,431.504 588,280.862L540,280.862ZM294,501.724C155.877,501.724 48,400.688 48,280.862L0,280.862C0,431.504 133.889,549.724 294,549.724L294,501.724ZM48,280.862C48,161.036 155.877,60 294,60L294,12C133.889,12 0,130.221 0,280.862L48,280.862ZM294,60C432.122,60 540,161.036 540,280.862L588,280.862C588,130.221 454.11,12 294,12L294,60Z" fill="#C7CEFF"/>
<path d="M540,280.862C540,400.688 432.122,501.724 294,501.724L294,549.724C454.11,549.724 588,431.504 588,280.862L540,280.862ZM294,60C432.122,60 540,161.036 540,280.862L588,280.862C588,130.221 454.11,12 294,12L294,60ZM294,501.724C182.971,501.724 90.773,435.972 59.534,347.88L14.295,363.922C52.933,472.88 164.521,549.724 294,549.724L294,501.724Z" fill="#8593ED"/>
<path d="M294,72C426.626,72 528,168.74 528,280.862L600,280.862C600,122.517 459.608,0 294,0L294,72ZM528,280.862C528,347.654 492.693,408.216 435.733,447.016L476.268,506.522C550.466,455.978 600,374.29 600,280.862L528,280.862Z" fill="#DEE1F4"/>
<path d="M294,60C432.123,60 540,161.036 540,280.862L588,280.862C588,130.221 454.111,12 294,12L294,60ZM540,280.862C540,352.094 502.322,416.176 442.488,456.934L469.512,496.604C540.838,448.018 588,369.85 588,280.862L540,280.862Z" fill="#5A6ACF"/>
</svg>
