<svg width="1462" height="120" viewBox="0 0 1462 120" fill="none" xmlns="http://www.w3.org/2000/svg" xmlns:xlink="http://www.w3.org/1999/xlink">
<line x1="0" y1="39.255" x2="1462" y2="39.255" stroke="#E2E7E7" stroke-width="1" stroke-miterlimit="3.999327" stroke-dasharray="3 6 "/>
<path d="M165,68L165.511,70.956L165.557,70.948L165.603,70.939L165,68ZM277,45L277.564,42.054L276.98,41.942L276.396,42.061L277,45ZM397,68L396.436,70.946L396.716,71L397,71L397,68ZM538,68L538.502,65.042L538.252,65L538,65L538,68ZM650,87L649.498,89.958L650.242,90.084L650.956,89.844L650,87ZM775,45L774.096,42.139L774.07,42.148L774.044,42.156L775,45ZM908,3L909.456,0.378L908.328,-0.25L907.096,0.139L908,3ZM1025,68L1023.544,70.622L1024.222,71L1025,71L1025,68ZM1281,68L1281,71L1281.628,71L1282.202,70.748L1281,68ZM55.511,89.956L165.511,70.956L164.489,65.044L54.489,84.044L55.511,89.956ZM165.603,70.939L277.604,47.939L276.396,42.061L164.397,65.061L165.603,70.939ZM276.436,47.946L396.436,70.946L397.564,65.054L277.564,42.054L276.436,47.946ZM397,71L538,71L538,65L397,65L397,71ZM537.498,70.958L649.498,89.958L650.502,84.042L538.502,65.042L537.498,70.958ZM650.956,89.844L775.956,47.844L774.044,42.156L649.044,84.156L650.956,89.844ZM775.904,47.861L908.904,5.861L907.096,0.139L774.096,42.139L775.904,47.861ZM906.544,5.622L1023.544,70.622L1026.456,65.378L909.456,0.378L906.544,5.622ZM1025,71L1153,71L1153,65L1025,65L1025,71ZM1153,71L1281,71L1281,65L1153,65L1153,71ZM1282.202,70.748L1394.202,21.748L1391.798,16.252L1279.798,65.252L1282.202,70.748Z" fill="#565778"/>
<path d="M165,116L165,119L166.093,119L166.93,118.297L165,116ZM284,16L285.95,13.719L284.016,12.068L282.07,13.703L284,16ZM401,116L399.05,118.281L400.064,119.147L401.386,118.975L401,116ZM524,100L524.386,102.975L524.768,102.925L525.126,102.781L524,100ZM655,47L656.45,44.374L655.2,43.683L653.874,44.219L655,47ZM780,116L778.55,118.626L779.226,119L780,119L780,116ZM917,116L917,119L917.996,119L918.794,118.404L917,116ZM1051,16L1053,13.763L1051.17,12.129L1049.206,13.596L1051,16ZM1145,100L1143,102.237L1143.854,103L1145,103L1145,100ZM1285,100L1285,103L1285.342,103L1285.676,102.923L1285,100ZM56,119L165,119L165,113L56,113L56,119ZM166.93,118.297L285.93,18.297L282.07,13.703L163.07,113.703L166.93,118.297ZM282.05,18.281L399.05,118.281L402.95,113.719L285.95,13.719L282.05,18.281ZM401.386,118.975L524.386,102.975L523.614,97.025L400.614,113.025L401.386,118.975ZM525.126,102.781L656.126,49.781L653.874,44.219L522.874,97.219L525.126,102.781ZM653.55,49.626L778.55,118.626L781.45,113.374L656.45,44.374L653.55,49.626ZM780,119L917,119L917,113L780,113L780,119ZM918.794,118.404L1052.794,18.404L1049.206,13.596L915.206,113.596L918.794,118.404ZM1049,18.237L1143,102.237L1147,97.763L1053,13.763L1049,18.237ZM1145,103L1285,103L1285,97L1145,97L1145,103ZM1285.676,102.923L1393.676,77.923L1392.324,72.077L1284.324,97.077L1285.676,102.923Z" fill="#C7CEFF"/>
</svg>
