<svg width="44" height="46" viewBox="0 0 44 46" fill="none" xmlns="http://www.w3.org/2000/svg" xmlns:xlink="http://www.w3.org/1999/xlink">
<path d="M43.05,21.334C43.05,33.026 33.413,42.504 21.525,42.504C9.637,42.504 0,33.026 0,21.334C0,9.642 9.637,0.164 21.525,0.164C33.413,0.164 43.05,9.642 43.05,21.334Z" fill="url(#pf_0_1186_1313)"/>
<path d="M43.051,36.036C43.051,40.908 39.247,44.857 34.554,44.857C29.861,44.857 26.057,40.908 26.057,36.036C26.057,31.164 29.861,27.215 34.554,27.215C39.247,27.215 43.051,31.164 43.051,36.036Z" fill="url(#pf_0_1186_1314)"/>
<defs>
<radialGradient id="pf_0_1186_1313" cx="0" cy="0" r="1" gradientUnits="userSpaceOnUse" gradientTransform="matrix(10.762579 17.782883 -18.081131 10.58505 0 3.469)">
<stop stop-color="#897FFF"/>
<stop offset="1" stop-color="#5243FF"/>
</radialGradient>
<radialGradient id="pf_0_1186_1314" cx="0" cy="0" r="1" gradientUnits="userSpaceOnUse" gradientTransform="matrix(4.248386 8.820875 -8.496773 4.410438 13.029 13.608)">
<stop offset="0.222" stop-color="#EF0606"/>
<stop offset="1" stop-color="#B00101"/>
</radialGradient>
</defs>
</svg>
