<svg width="40" height="38" viewBox="0 0 40 38" fill="none" xmlns="http://www.w3.org/2000/svg" xmlns:xlink="http://www.w3.org/1999/xlink">
<path d="M2,29.439L0,29.439C0,30.246 0.485,30.974 1.23,31.285L2,29.439ZM2,2.011L2.77,0.165C2.153,-0.093 1.448,-0.025 0.891,0.346C0.334,0.717 0,1.342 0,2.011L2,2.011ZM12.957,6.582L12.186,8.428C12.65,8.621 13.17,8.633 13.642,8.461L12.957,6.582ZM25.478,2.011L26.164,0.132C25.721,-0.03 25.235,-0.03 24.792,0.132L25.478,2.011ZM38,6.582L40,6.582C40,5.742 39.475,4.991 38.686,4.703L38,6.582ZM38,34.011L37.314,35.889C37.927,36.113 38.611,36.024 39.146,35.649C39.681,35.275 40,34.663 40,34.011L38,34.011ZM25.478,29.439L26.164,27.56C25.721,27.399 25.235,27.399 24.792,27.56L25.478,29.439ZM12.957,34.011L12.186,35.856C12.65,36.05 13.17,36.062 13.642,35.889L12.957,34.011ZM11.25,32.677C11.25,33.782 12.145,34.677 13.25,34.677C14.355,34.677 15.25,33.782 15.25,32.677L11.25,32.677ZM15.25,6.582C15.25,5.477 14.355,4.582 13.25,4.582C12.145,4.582 11.25,5.477 11.25,6.582L15.25,6.582ZM23.625,28.296C23.625,29.401 24.52,30.296 25.625,30.296C26.73,30.296 27.625,29.401 27.625,28.296L23.625,28.296ZM27.625,2.064C27.625,0.96 26.73,0.064 25.625,0.064C24.52,0.064 23.625,0.96 23.625,2.064L27.625,2.064ZM4,29.439L4,2.011L0,2.011L0,29.439L4,29.439ZM1.23,3.856L12.186,8.428L13.727,4.736L2.77,0.165L1.23,3.856ZM13.642,8.461L26.164,3.889L24.792,0.132L12.271,4.703L13.642,8.461ZM24.792,3.889L37.314,8.461L38.686,4.703L26.164,0.132L24.792,3.889ZM36,6.582L36,34.011L40,34.011L40,6.582L36,6.582ZM38.686,32.132L26.164,27.56L24.792,31.318L37.314,35.889L38.686,32.132ZM24.792,27.56L12.271,32.132L13.642,35.889L26.164,31.318L24.792,27.56ZM13.727,32.165L2.77,27.593L1.23,31.285L12.186,35.856L13.727,32.165ZM15.25,32.677L15.25,6.582L11.25,6.582L11.25,32.677L15.25,32.677ZM27.625,28.296L27.625,2.064L23.625,2.064L23.625,28.296L27.625,28.296Z" fill="#FFFFFF"/>
</svg>
