<svg width="36" height="20" viewBox="0 0 36 20" fill="none" xmlns="http://www.w3.org/2000/svg" xmlns:xlink="http://www.w3.org/1999/xlink">
<path d="M14.686,19.579C15.791,19.579 16.686,18.684 16.686,17.579C16.686,16.474 15.791,15.579 14.686,15.579L14.686,19.579ZM9.422,17.579L9.422,19.579L9.422,19.579L9.422,17.579ZM4.157,15.391L2.733,16.794L2.733,16.794L4.157,15.391ZM2.001,10.048L4.001,10.08C4.001,10.059 4.001,10.038 4.001,10.017L2.001,10.048ZM4.157,4.706L5.582,6.11L5.582,6.11L4.157,4.706ZM9.39,2.485L9.39,0.485L9.39,0.485L9.39,2.485ZM14.654,4.485C15.759,4.485 16.654,3.59 16.654,2.485C16.654,1.381 15.759,0.485 14.654,0.485L14.654,4.485ZM21.314,0.421C20.209,0.421 19.314,1.317 19.314,2.421C19.314,3.526 20.209,4.421 21.314,4.421L21.314,0.421ZM31.843,4.609L33.267,3.206L33.267,3.206L31.843,4.609ZM33.999,9.952L31.999,9.92C31.999,9.931 31.999,9.941 31.999,9.952L33.999,9.952ZM31.811,15.262L33.235,16.666L33.235,16.666L31.811,15.262ZM26.578,17.482L26.578,19.482L26.578,19.482L26.578,17.482ZM21.314,15.482C20.209,15.482 19.314,16.378 19.314,17.482C19.314,18.587 20.209,19.482 21.314,19.482L21.314,15.482ZM10.087,8.07C8.983,8.07 8.087,8.966 8.087,10.07C8.087,11.175 8.983,12.07 10.087,12.07L10.087,8.07ZM25.88,12.07C26.985,12.07 27.88,11.175 27.88,10.07C27.88,8.966 26.985,8.07 25.88,8.07L25.88,12.07ZM14.686,15.579L9.422,15.579L9.422,19.579L14.686,19.579L14.686,15.579ZM9.422,15.579C7.978,15.579 6.592,15.012 5.582,13.987L2.733,16.794C4.513,18.601 6.934,19.579 9.422,19.579L9.422,15.579ZM5.582,13.987C4.551,12.941 3.978,11.555 4.001,10.08L0.001,10.017C-0.039,12.597 0.972,15.008 2.733,16.794L5.582,13.987ZM4.001,10.017C3.977,8.542 4.552,7.155 5.582,6.11L2.733,3.302C0.973,5.088 -0.039,7.5 0.001,10.08L4.001,10.017ZM5.582,6.11C6.641,5.035 7.971,4.485 9.39,4.485L9.39,0.485C6.877,0.485 4.527,1.481 2.733,3.302L5.582,6.11ZM9.39,4.485L14.654,4.485L14.654,0.485L9.39,0.485L9.39,4.485ZM21.314,4.421L26.578,4.421L26.578,0.421L21.314,0.421L21.314,4.421ZM26.578,4.421C28.022,4.421 29.408,4.988 30.418,6.013L33.267,3.206C31.487,1.399 29.066,0.421 26.578,0.421L26.578,4.421ZM30.418,6.013C31.449,7.059 32.022,8.445 31.999,9.92L35.999,9.983C36.039,7.403 35.028,4.992 33.267,3.206L30.418,6.013ZM31.999,9.952C31.999,11.413 31.419,12.81 30.386,13.858L33.235,16.666C34.993,14.882 35.999,12.481 35.999,9.952L31.999,9.952ZM30.386,13.858C29.354,14.905 27.991,15.482 26.578,15.482L26.578,19.482C29.098,19.482 31.477,18.45 33.235,16.666L30.386,13.858ZM26.578,15.482L21.314,15.482L21.314,19.482L26.578,19.482L26.578,15.482ZM10.087,12.07L25.88,12.07L25.88,8.07L10.087,8.07L10.087,12.07Z" transform="rotate(-90 18 10)" fill="#FFFFFF"/>
</svg>
