<svg width="44" height="44" viewBox="0 0 44 44" fill="none" xmlns="http://www.w3.org/2000/svg" xmlns:xlink="http://www.w3.org/1999/xlink">
<path d="M30.878,12.004C28.606,9.838 25.575,8.658 22.438,8.706C16.699,8.706 11.824,12.578 10.086,17.792L10.086,17.792C9.165,20.525 9.165,23.483 10.086,26.216L10.094,26.216C11.84,31.422 16.707,35.294 22.446,35.294C25.409,35.294 27.952,34.536 29.924,33.197L29.924,33.192C32.244,31.656 33.828,29.239 34.321,26.507L22.438,26.507L22.438,18.035L43.189,18.035C43.448,19.506 43.569,21.01 43.569,22.505C43.569,29.197 41.178,34.854 37.017,38.686L37.021,38.689C33.376,42.052 28.372,44 22.438,44C14.12,44 6.513,39.311 2.778,31.882L2.778,31.882C-0.342,25.666 -0.342,18.342 2.778,12.126L2.779,12.126L2.778,12.126C6.513,4.689 14.12,0 22.438,0C27.903,-0.065 33.182,1.989 37.159,5.723L30.878,12.004Z" clip-rule="evenodd" fill-rule="evenodd" fill="#FFFFFF"/>
</svg>
