<svg width="36" height="36" viewBox="0 0 36 36" fill="none" xmlns="http://www.w3.org/2000/svg" xmlns:xlink="http://www.w3.org/1999/xlink">
<path d="M32,3.542L32,7.542L24,7.542L24,3.542L32,3.542ZM12,3.542L12,15.542L4,15.542L4,3.542L12,3.542ZM32,19.542L32,31.542L24,31.542L24,19.542L32,19.542ZM12,27.542L12,31.542L4,31.542L4,27.542L12,27.542ZM36,-0.458L20,-0.458L20,11.542L36,11.542L36,-0.458ZM16,-0.458L0,-0.458L0,19.542L16,19.542L16,-0.458ZM36,15.542L20,15.542L20,35.542L36,35.542L36,15.542ZM16,23.542L0,23.542L0,35.542L16,35.542L16,23.542Z" fill="#FFFFFF"/>
</svg>
