<svg width="42" height="34" viewBox="0 0 42 34" fill="none" xmlns="http://www.w3.org/2000/svg" xmlns:xlink="http://www.w3.org/1999/xlink">
<path d="M24.614,0.068C23.552,-0.234 22.418,0.38 22.114,1.444L14.114,29.444C13.811,30.506 14.427,31.64 15.489,31.944C16.551,32.246 17.686,31.632 17.989,30.568L25.99,2.568C26.293,1.506 25.676,0.372 24.614,0.068ZM9.677,2.068C9.175,2.168 8.671,2.422 8.364,2.882L0.364,14.882C-0.034,15.478 -0.082,16.24 0.239,16.882L6.239,28.882C6.733,29.868 7.939,30.312 8.927,29.818C9.915,29.324 10.358,28.118 9.864,27.13L4.364,16.194L11.739,5.13C12.352,4.212 12.096,2.932 11.177,2.318C10.717,2.012 10.179,1.968 9.677,2.068ZM32.677,2.13C32.191,1.97 31.671,1.946 31.177,2.194C30.189,2.688 29.746,3.894 30.24,4.882L35.74,15.818L28.364,26.882C27.752,27.8 28.008,29.08 28.927,29.694C29.846,30.306 31.127,30.05 31.74,29.13L39.74,17.13C40.138,16.534 40.185,15.772 39.864,15.13L33.864,3.13C33.617,2.638 33.162,2.294 32.677,2.13Z" fill="#FFFFFF"/>
</svg>
