<svg width="254" height="264" viewBox="0 0 254 264" fill="none" xmlns="http://www.w3.org/2000/svg" xmlns:xlink="http://www.w3.org/1999/xlink">
<g opacity="0.9">
<circle cx="122.353" cy="132.353" r="122.353" fill="#7E73FF" fill-opacity="0"/>
</g>
<g filter="url(#filter1186_1673)">
<path d="M250.818,132C250.818,202.952 193.299,260.47 122.346,260.47L122.346,263.53C194.988,263.53 253.876,204.642 253.876,132L250.818,132ZM122.346,3.529C193.299,3.529 250.818,61.048 250.818,132L253.876,132C253.876,59.358 194.988,0.471 122.346,0.471L122.346,3.529ZM122.346,260.47C73.866,260.47 31.656,233.618 9.781,193.967L7.103,195.445C29.494,236.032 72.708,263.53 122.346,263.53L122.346,260.47Z" fill="url(#ps_0_1186_1673)"/>
</g>
<defs>
<filter id="filter1186_1673" x="4.441772" y="-2" width="129.952248" height="138" filterUnits="userSpaceOnUse" color-interpolation-filters="sRGB">
<feFlood flood-opacity="0" result="BackgroundImageFix"/>
<feBlend mode="normal" in="SourceGraphic" in2="BackgroundImageFix" result="shape"/>
<feGaussianBlur stdDeviation="2" result="0foregroundblur"/>
</filter>
<linearGradient id="ps_0_1186_1673" x1="130.394" y1="2" x2="130.394" y2="262" gradientUnits="userSpaceOnUse">
<stop offset="0.645" stop-color="#E6E8EC" stop-opacity="0.7"/>
<stop offset="1" stop-color="#838486"/>
</linearGradient>
</defs>
</svg>
