<svg width="1462" height="206" viewBox="0 0 1462 206" fill="none" xmlns="http://www.w3.org/2000/svg" xmlns:xlink="http://www.w3.org/1999/xlink">
<line x1="0" y1="101.128" x2="1462" y2="101.128" stroke="#E2E7E7" stroke-width="1" stroke-miterlimit="3.999327" stroke-dasharray="3 6 "/>
<path d="M169,102L168.604,99.026L167.751,99.14L167.089,99.688L169,102ZM289,86L289.916,83.143L289.274,82.937L288.604,83.026L289,86ZM395,120L394.084,122.857L395.058,123.169L396.022,122.821L395,120ZM533,70L534.944,67.715L533.616,66.586L531.978,67.179L533,70ZM647,167L645.056,169.285L646.942,170.889L648.874,169.343L647,167ZM782,59L781.282,56.087L780.642,56.245L780.126,56.657L782,59ZM912,27L913.35,24.321L912.36,23.822L911.282,24.087L912,27ZM1029,86L1027.65,88.679L1029.196,89.459L1030.646,88.508L1029,86ZM1154,4L1154.534,1.048L1153.356,0.835L1152.354,1.492L1154,4ZM1281,27L1280.466,29.952L1281.016,30.052L1281.564,29.946L1281,27ZM49.911,204.312L170.911,104.312L167.089,99.688L46.089,199.688L49.911,204.312ZM169.396,104.974L289.396,88.974L288.604,83.026L168.604,99.026L169.396,104.974ZM288.084,88.857L394.084,122.857L395.916,117.143L289.916,83.143L288.084,88.857ZM396.022,122.821L534.022,72.821L531.978,67.179L393.978,117.179L396.022,122.821ZM531.056,72.285L645.056,169.285L648.944,164.715L534.944,67.715L531.056,72.285ZM648.874,169.343L783.874,61.343L780.126,56.657L645.126,164.657L648.874,169.343ZM782.718,61.913L912.718,29.913L911.282,24.087L781.282,56.087L782.718,61.913ZM910.65,29.679L1027.65,88.679L1030.35,83.321L913.35,24.321L910.65,29.679ZM1030.646,88.508L1155.646,6.508L1152.354,1.492L1027.354,83.492L1030.646,88.508ZM1153.466,6.952L1280.466,29.952L1281.534,24.048L1154.534,1.048L1153.466,6.952ZM1281.564,29.946L1401.564,6.946L1400.436,1.054L1280.436,24.054L1281.564,29.946Z" fill="#FFA726"/>
</svg>
