<svg width="44" height="38" viewBox="0 0 44 38" fill="none" xmlns="http://www.w3.org/2000/svg" xmlns:xlink="http://www.w3.org/1999/xlink">
<path d="M21.451,34.468L20.037,35.882C20.412,36.257 20.921,36.468 21.451,36.468C21.982,36.468 22.491,36.257 22.866,35.882L21.451,34.468ZM23.451,4.845C23.451,3.74 22.556,2.845 21.451,2.845C20.347,2.845 19.451,3.74 19.451,4.845L23.451,4.845ZM18.537,31.553L19.951,30.139L19.951,30.139L18.537,31.553ZM23.269,4.124L21.855,2.71L21.855,2.71L23.269,4.124ZM21.451,5.942L20.037,7.356C20.412,7.731 20.921,7.942 21.451,7.942C21.982,7.942 22.491,7.731 22.866,7.356L21.451,5.942ZM19.634,4.124L21.048,2.71L21.048,2.71L19.634,4.124ZM23.451,34.468L23.451,4.845L19.451,4.845L19.451,34.468L23.451,34.468ZM4.992,30.982L12.331,30.982L12.331,26.982L4.992,26.982L4.992,30.982ZM17.122,32.967L20.037,35.882L22.866,33.053L19.951,30.139L17.122,32.967ZM22.866,35.882L25.781,32.967L22.952,30.139L20.037,33.053L22.866,35.882ZM30.573,30.982L39.006,30.982L39.006,26.982L30.573,26.982L30.573,30.982ZM43.2,26.788L43.2,3.748L39.2,3.748L39.2,26.788L43.2,26.788ZM39.006,-0.447L29.476,-0.447L29.476,3.553L39.006,3.553L39.006,-0.447ZM21.855,2.71L20.037,4.528L22.866,7.356L24.683,5.538L21.855,2.71ZM22.866,4.528L21.048,2.71L18.219,5.538L20.037,7.356L22.866,4.528ZM13.427,-0.447L4.994,-0.447L4.994,3.553L13.427,3.553L13.427,-0.447ZM0.8,3.748L0.8,26.788L4.8,26.788L4.8,3.748L0.8,3.748ZM4.994,-0.447C2.678,-0.447 0.8,1.431 0.8,3.748L4.8,3.748C4.8,3.64 4.887,3.553 4.994,3.553L4.994,-0.447ZM21.048,2.71C19.027,0.689 16.286,-0.447 13.427,-0.447L13.427,3.553C15.225,3.553 16.948,4.267 18.219,5.538L21.048,2.71ZM29.476,-0.447C26.617,-0.447 23.876,0.689 21.855,2.71L24.683,5.538C25.954,4.267 27.678,3.553 29.476,3.553L29.476,-0.447ZM39.006,30.982C41.322,30.982 43.2,29.104 43.2,26.788L39.2,26.788C39.2,26.895 39.113,26.982 39.006,26.982L39.006,30.982ZM25.781,32.967C27.052,31.696 28.775,30.982 30.573,30.982L30.573,26.982C27.714,26.982 24.973,28.117 22.952,30.139L25.781,32.967ZM12.331,30.982C14.128,30.982 15.851,31.696 17.122,32.967L19.951,30.139C17.93,28.118 15.19,26.982 12.331,26.982L12.331,30.982ZM43.2,3.748C43.2,1.431 41.322,-0.447 39.006,-0.447L39.006,3.553C39.113,3.553 39.2,3.64 39.2,3.748L43.2,3.748ZM4.992,26.982C4.887,26.982 4.8,26.897 4.8,26.788L0.8,26.788C0.8,29.102 2.674,30.982 4.992,30.982L4.992,26.982Z" fill="#FFFFFF"/>
</svg>
