<svg width="28" height="28" viewBox="0 0 28 28" fill="none" xmlns="http://www.w3.org/2000/svg" xmlns:xlink="http://www.w3.org/1999/xlink">
<path d="M16,13.111C16,12.007 15.105,11.111 14,11.111C12.895,11.111 12,12.007 12,13.111L16,13.111ZM12,18.778C12,19.882 12.895,20.778 14,20.778C15.105,20.778 16,19.882 16,18.778L12,18.778ZM12,8.911C12,10.015 12.895,10.911 14,10.911C15.105,10.911 16,10.015 16,8.911L12,8.911ZM16,8.861C16,7.757 15.105,6.861 14,6.861C12.895,6.861 12,7.757 12,8.861L16,8.861ZM12,13.111L12,18.778L16,18.778L16,13.111L12,13.111ZM16,8.911L16,8.861L12,8.861L12,8.911L16,8.911ZM4,13.111C4,8.063 8.368,3.778 14,3.778L14,-0.222C6.377,-0.222 0,5.641 0,13.111L4,13.111ZM14,3.778C19.632,3.778 24,8.063 24,13.111L28,13.111C28,5.641 21.623,-0.222 14,-0.222L14,3.778ZM24,13.111C24,18.16 19.632,22.444 14,22.444L14,26.444C21.623,26.444 28,20.581 28,13.111L24,13.111ZM14,22.444C8.368,22.444 4,18.16 4,13.111L0,13.111C0,20.581 6.377,26.444 14,26.444L14,22.444Z" fill="#87888C"/>
</svg>
