<svg width="44" height="44" viewBox="0 0 44 44" fill="none" xmlns="http://www.w3.org/2000/svg" xmlns:xlink="http://www.w3.org/1999/xlink">
<path d="M40.743,0L3.248,0C1.452,0 0,1.418 0,3.171L0,40.82C0,42.573 1.452,44 3.248,44L40.743,44C42.539,44 44,42.573 44,40.829L44,3.171C44,1.418 42.539,0 40.743,0ZM13.054,37.495L6.523,37.495L6.523,16.491L13.054,16.491L13.054,37.495ZM9.788,13.63C7.691,13.63 5.998,11.937 5.998,9.848C5.998,7.76 7.691,6.067 9.788,6.067C11.877,6.067 13.57,7.76 13.57,9.848C13.57,11.928 11.877,13.63 9.788,13.63ZM37.495,37.495L30.972,37.495L30.972,27.285C30.972,24.853 30.929,21.716 27.577,21.716C24.183,21.716 23.667,24.372 23.667,27.113L23.667,37.495L17.153,37.495L17.153,16.491L23.409,16.491L23.409,19.362L23.495,19.362C24.363,17.712 26.495,15.967 29.666,15.967C36.274,15.967 37.495,20.316 37.495,25.97L37.495,37.495L37.495,37.495Z" fill="#FFFFFF"/>
</svg>
