<svg width="24" height="24" viewBox="0 0 24 24" fill="none" xmlns="http://www.w3.org/2000/svg">
<rect width="24" height="24" transform="translate(0 0.00531006)" fill="white" fill-opacity="0.02"/>
<path d="M11.7257 20.2339V5.42245M11.7257 20.2339L10.2683 18.7764C9.44525 17.9534 8.32949 17.491 7.16557 17.491H3.49621C2.89028 17.491 2.40002 16.9998 2.40002 16.3939V4.87388C2.40002 4.26795 2.89123 3.77674 3.49717 3.77674H7.71365C8.87757 3.77674 9.99382 4.2391 10.8168 5.06212L11.7257 5.97102L12.6346 5.06212C13.4577 4.2391 14.5739 3.77674 15.7378 3.77674H20.5029C21.1088 3.77674 21.6 4.26795 21.6 4.87388V16.3939C21.6 16.9998 21.1088 17.491 20.5029 17.491H16.2864C15.1225 17.491 14.0062 17.9534 13.1832 18.7764L11.7257 20.2339Z" stroke="white" stroke-width="2" stroke-linecap="round" stroke-linejoin="round"/>
</svg>
