<svg width="24" height="24" viewBox="0 0 24 24" fill="none" xmlns="http://www.w3.org/2000/svg">
<path d="M14.3071 4.03394C13.7761 3.88294 13.2089 4.18993 13.0571 4.72193L9.05711 18.7219C8.90541 19.2529 9.21361 19.8199 9.74471 19.9719C10.2757 20.1229 10.8429 19.8159 10.9947 19.2839L14.9947 5.28394C15.1464 4.75294 14.8382 4.18594 14.3071 4.03394ZM6.83841 5.03394C6.58741 5.08394 6.33531 5.21092 6.18211 5.44092L2.18211 11.4409C1.98311 11.7389 1.95921 12.1199 2.11971 12.4409L5.11971 18.4409C5.36661 18.9339 5.96941 19.1559 6.46341 18.9089C6.95741 18.6619 7.17911 18.0589 6.93211 17.5649L4.18211 12.0969L7.86971 6.56494C8.17601 6.10594 8.04791 5.46594 7.58841 5.15894C7.35861 5.00594 7.08941 4.98394 6.83841 5.03394ZM18.3384 5.06494C18.0956 4.98494 17.8354 4.97293 17.5884 5.09693C17.0944 5.34393 16.8727 5.94692 17.1197 6.44092L19.8697 11.9089L16.1821 17.4409C15.8758 17.8999 16.0039 18.5399 16.4634 18.8469C16.9229 19.1529 17.5633 19.0249 17.8697 18.5649L21.8697 12.5649C22.0687 12.2669 22.0926 11.8859 21.9321 11.5649L18.9321 5.56494C18.8087 5.31894 18.5812 5.14694 18.3384 5.06494Z" fill="white"/>
</svg>
