<svg width="22" height="22" viewBox="0 0 22 22" fill="none" xmlns="http://www.w3.org/2000/svg">
<g clip-path="url(#clip0_1170_1458)">
<path fill-rule="evenodd" clip-rule="evenodd" d="M15.4388 6.00218C14.3031 4.91896 12.7874 4.32884 11.2191 4.35309C8.34938 4.35309 5.91213 6.28914 5.04311 8.89614V8.8962C4.58234 10.2624 4.58233 11.7417 5.04311 13.1078H5.04714C5.92019 15.7108 8.35341 17.6469 11.2231 17.6469C12.7045 17.6469 13.9763 17.268 14.9619 16.5987V16.596C16.1219 15.8281 16.9141 14.6195 17.1607 13.2534H11.2191V9.01747H21.5947C21.724 9.7531 21.7846 10.5049 21.7846 11.2526C21.7846 14.5983 20.5889 17.427 18.5085 19.3428L18.5107 19.3445C16.6878 21.0259 14.1859 22 11.2191 22C7.06 22 3.25658 19.6557 1.38923 15.9412V15.9412C-0.170926 12.833 -0.170922 9.17104 1.38924 6.06284H1.38927L1.38923 6.06281C3.25658 2.34427 7.06 -2.16623e-05 11.2191 -2.16623e-05C13.9514 -0.0323568 16.5908 0.994283 18.5794 2.86164L15.4388 6.00218Z" fill="white"/>
</g>
<defs>
<clipPath id="clip0_1170_1458">
<rect width="22" height="22" fill="white"/>
</clipPath>
</defs>
</svg>
